# xmcd CD database file
#
# Track frame offsets:
#	150
#	32026
#	54872
#	76016
#	108942
#	140473
#	162824
#	190605
#
# Disc length: 2854 seconds
#
# Revision: 0
# Processed by: cddbd v1.5.2PL0 Copyright (c) Steve Scherf et al.
# Submitted via: CDex 1.81
#
DISCID=530b2408
DTITLE=Wolfgang Schalk - From Here To There
DYEAR=2016
DGENRE=Jazz
TTITLE0=Zensibility
TTITLE1=The Now Catcher
TTITLE2=Last Night?s Song
TTITLE3=From Here To There
TTITLE4=Wow Wow What?
TTITLE5=Satin Doll
TTITLE6=Expressions
TTITLE7=Starlit
EXTD=YEAR: 2016
EXTT0=
EXTT1=
EXTT2=
EXTT3=
EXTT4=
EXTT5=
EXTT6=
EXTT7=
PLAYORDER=
